<?xml version="1.0" encoding="utf-8"?>
<!-- Generator: Adobe Illustrator 19.0.0, SVG Export Plug-In . SVG Version: 6.00 Build 0)  -->
<!DOCTYPE svg PUBLIC "-//W3C//DTD SVG 1.1//EN" "http://www.w3.org/Graphics/SVG/1.1/DTD/svg11.dtd">
<svg version="1.1" id="Layer_1" xmlns="http://www.w3.org/2000/svg" xmlns:xlink="http://www.w3.org/1999/xlink" x="0px" y="0px"
	 width="64.8px" height="64.8px" viewBox="-247 358.9 64.8 64.8" style="enable-background:new -247 358.9 64.8 64.8;"
	 xml:space="preserve">
<style type="text/css">
	.st0{fill:#FFFFFF;}
</style>
<polygon class="st0" points="-219.4,383.2 -219.4,371.2 -222.8,371.2 -222.8,383.2 -234.8,383.2 -234.8,386.6 -222.8,386.6 
	-222.8,398.7 -219.4,398.7 -219.4,386.6 -207.4,386.6 -207.4,383.2 "/>
<path class="st0" d="M-201.4,402.2c4.1-4.6,6.6-10.7,6.6-17.3c0-14.4-11.7-26.1-26.1-26.1c-14.4,0-26.1,11.7-26.1,26.1
	c0,14.4,11.7,26.1,26.1,26.1c6.6,0,12.7-2.5,17.3-6.6l19.2,19.2l2.2-2.2L-201.4,402.2z M-220.9,407.8c-12.6,0-22.9-10.3-22.9-22.9
	s10.3-22.9,22.9-22.9s22.9,10.3,22.9,22.9C-198,397.6-208.3,407.8-220.9,407.8z"/>
</svg>
