<?xml version="1.0" encoding="utf-8"?>
<!-- Generator: Adobe Illustrator 19.0.0, SVG Export Plug-In . SVG Version: 6.00 Build 0)  -->
<!DOCTYPE svg PUBLIC "-//W3C//DTD SVG 1.1//EN" "http://www.w3.org/Graphics/SVG/1.1/DTD/svg11.dtd">
<svg version="1.1" id="Layer_1" xmlns="http://www.w3.org/2000/svg" xmlns:xlink="http://www.w3.org/1999/xlink" x="0px" y="0px"
	 width="179.1px" height="34.2px" viewBox="0 0 179.1 34.2" style="enable-background:new 0 0 179.1 34.2;" xml:space="preserve">
<style type="text/css">
	.st0{fill:#FC4C02;}
	.st1{fill:#999999;}
</style>
<polygon id="XMLID_21_" class="st0" points="69.5,12.9 73.9,21.7 80.5,21.7 69.5,0 58.4,21.7 65,21.7 "/>
<polygon id="XMLID_20_" class="st0" points="118.3,10.2 113.8,1.4 107.2,1.4 118.3,23.2 129.3,1.4 122.7,1.4 "/>
<g id="XMLID_2_">
	<path id="XMLID_18_" class="st0" d="M0,18.8L3.1,15c2,1.6,4.2,2.4,6.6,2.4c1.5,0,2.3-0.5,2.3-1.4V16c0-0.8-0.7-1.3-3.4-2
		C4.3,13.1,1,11.8,1,7.7V7.6c0-3.8,3-6.5,7.9-6.5c3.5,0,6.2,0.9,8.4,2.7l-2.8,4c-1.9-1.3-3.9-2-5.7-2c-1.4,0-2,0.6-2,1.3v0.1
		c0,0.9,0.7,1.3,3.5,2c4.7,1,7.6,2.5,7.6,6.3v0.1c0,4.2-3.3,6.6-8.2,6.6C5.9,22.1,2.5,21,0,18.8z"/>
	<path id="XMLID_16_" class="st0" d="M24.9,6.4h-6.1V1.4h17.9v4.9h-6.1v15.4h-5.6V6.4z"/>
	<path id="XMLID_13_" class="st0" d="M39.2,1.4h9.6c3.1,0,5.3,0.8,6.6,2.2c1.2,1.2,1.8,2.7,1.8,4.7v0.1c0,3.1-1.7,5.2-4.2,6.3
		l4.9,7.1h-6.5l-4.1-6.2h-0.1h-2.4v6.2h-5.6V1.4z M48.5,11.2c1.9,0,3-0.9,3-2.4V8.7c0-1.6-1.2-2.4-3.1-2.4h-3.7v4.9H48.5z"/>
	<path id="XMLID_11_" class="st0" d="M85.2,6.4h-6.1V1.4H97v4.9h-6.1v15.4h-5.6V6.4z"/>
	<path id="XMLID_9_" class="st0" d="M99.6,1.4h5.7v20.4h-5.7V1.4z"/>
	<path id="XMLID_7_" class="st0" d="M131.2,1.4h5.7v20.4h-5.7V1.4z"/>
	<path id="XMLID_5_" class="st0" d="M145.6,6.4h-6.1V1.4h17.9v4.9h-6.1v15.4h-5.6V6.4z"/>
	<path id="XMLID_3_" class="st0" d="M165.7,14.2L158,1.4h6.4l4.2,7.4l4.2-7.4h6.3l-7.7,12.7v7.7h-5.7V14.2z"/>
</g>
<path id="XMLID_114_" class="st1" d="M144.5,34.2c-0.7,0-1.4-0.1-2.1-0.3c-0.6-0.2-1.2-0.5-1.6-0.9l1.3-1.5c0.4,0.3,0.8,0.5,1.2,0.6
	c0.4,0.1,0.8,0.2,1.3,0.2c0.2,0,0.3,0,0.5-0.1c0.1,0,0.1-0.1,0.1-0.2l0,0c0-0.1-0.1-0.2-0.2-0.3c-0.3-0.1-0.5-0.2-0.8-0.2
	c-0.4-0.1-0.8-0.2-1.1-0.3c-0.3-0.1-0.7-0.2-0.9-0.4c-0.3-0.2-0.5-0.4-0.7-0.6c-0.2-0.3-0.3-0.6-0.2-0.9l0,0c0-0.3,0.1-0.6,0.2-0.9
	c0.1-0.3,0.3-0.6,0.6-0.8c0.3-0.2,0.6-0.4,0.9-0.5c0.4-0.1,0.9-0.2,1.3-0.2c0.6,0,1.2,0.1,1.8,0.2c0.5,0.2,1,0.4,1.4,0.7l-1.2,1.6
	c-0.3-0.2-0.7-0.4-1.1-0.5c-0.3-0.1-0.7-0.2-1.1-0.2c-0.1,0-0.3,0-0.4,0.1c-0.1,0-0.1,0.1-0.1,0.2l0,0c0,0.1,0.1,0.2,0.2,0.2
	c0.2,0.1,0.5,0.2,0.8,0.2c0.4,0.1,0.8,0.2,1.2,0.3c0.3,0.1,0.7,0.3,0.9,0.4c0.3,0.2,0.5,0.4,0.6,0.6c0.1,0.3,0.2,0.6,0.2,0.9l0,0
	c0,0.4-0.1,0.7-0.2,1.1c-0.1,0.3-0.4,0.6-0.6,0.8c-0.3,0.2-0.6,0.4-1,0.5C145.3,34.1,144.9,34.2,144.5,34.2z"/>
<path id="XMLID_113_" class="st1" d="M149.6,28.9h-2.1v-2h6.6v2H152V34h-2.4V28.9z"/>
<path id="XMLID_110_" class="st1" d="M154.4,26.9h3.5c0.5,0,1.1,0.1,1.6,0.2c0.4,0.1,0.7,0.3,1,0.6c0.2,0.2,0.4,0.5,0.5,0.7
	c0.1,0.3,0.2,0.6,0.2,0.9l0,0c0,0.5-0.1,0.9-0.4,1.3c-0.3,0.4-0.6,0.7-1,0.9l1.7,2.4h-2.7l-1.3-2h-0.5v2h-2.4L154.4,26.9L154.4,26.9
	z M157.8,30.3c0.2,0,0.5-0.1,0.7-0.2c0.2-0.1,0.3-0.3,0.2-0.5l0,0c0-0.2-0.1-0.4-0.2-0.5c-0.2-0.1-0.4-0.2-0.7-0.2h-1v1.4
	L157.8,30.3L157.8,30.3z"/>
<polygon id="XMLID_109_" class="st1" points="175.2,31 176.8,34 179.1,34 175.2,26.4 171.4,34 173.7,34 "/>
<polygon id="XMLID_108_" class="st1" points="164.5,31 166.1,34 168.3,34 164.5,26.4 160.7,34 162.9,34 "/>
<polygon id="XMLID_107_" class="st1" points="169.9,30 168.3,26.9 166,26.9 169.9,34.5 173.7,26.9 171.4,26.9 "/>
<path id="XMLID_104_" class="st1" d="M109.6,34.1v-3h1.2c0.3,0,0.5,0.1,0.7,0.3c0.2,0.2,0.3,0.4,0.3,0.7c0,0.3-0.1,0.5-0.3,0.7
	c-0.2,0.2-0.5,0.3-0.7,0.3h-0.7v1.1H109.6z M110.1,32.5h0.7c0.1,0,0.3,0,0.4-0.1c0.2-0.2,0.2-0.5,0-0.7c0,0,0,0,0,0
	c-0.1-0.1-0.2-0.1-0.4-0.1h-0.7C110.1,31.6,110.1,32.5,110.1,32.5z"/>
<path id="XMLID_101_" class="st1" d="M114.1,34.1c-0.2,0.1-0.3,0.1-0.5,0.1c-0.2,0-0.3,0-0.5-0.1c-0.3-0.1-0.6-0.4-0.7-0.8
	c-0.1-0.2-0.1-0.5-0.1-0.7c0-0.4,0.1-0.8,0.4-1.1c0.2-0.3,0.6-0.4,0.9-0.4c0.3,0,0.7,0.1,0.9,0.4c0.3,0.3,0.4,0.7,0.4,1.1
	c0,0.2,0,0.5-0.1,0.7c-0.1,0.2-0.2,0.3-0.3,0.5C114.4,33.9,114.2,34,114.1,34.1z M113,33.4c0.2,0.3,0.7,0.4,1,0.1
	c0,0,0.1-0.1,0.1-0.1c0.2-0.3,0.2-0.5,0.2-0.8c0-0.3-0.1-0.6-0.2-0.8c-0.2-0.3-0.6-0.4-0.9-0.1c-0.1,0-0.1,0.1-0.1,0.1
	c-0.2,0.2-0.2,0.5-0.2,0.8C112.8,32.9,112.9,33.2,113,33.4z"/>
<path id="XMLID_100_" class="st1" d="M116,34.1l-0.6-3h0.5l0.4,2.1l0,0l0.7-2.1h0.3l0.7,2.1l0,0l0.4-2.1h0.5l-0.6,3h-0.5l-0.7-2l0,0
	l-0.7,2H116z"/>
<path id="XMLID_99_" class="st1" d="M119.8,34.1v-3h1.9v0.5h-1.4v0.8h1.2v0.4h-1.2v0.8h1.4v0.5L119.8,34.1L119.8,34.1z"/>
<path id="XMLID_96_" class="st1" d="M122.6,34.1v-3h1.2c0.3,0,0.5,0.1,0.7,0.2c0.3,0.3,0.4,0.9,0.1,1.2c-0.1,0.1-0.3,0.3-0.5,0.3
	l0.6,1.2h-0.6l-0.6-1.1h-0.5v1.1H122.6z M123.1,32.5h0.6c0.3,0,0.5-0.2,0.5-0.5c0-0.3-0.2-0.5-0.5-0.5h-0.6
	C123.1,31.6,123.1,32.5,123.1,32.5z"/>
<path id="XMLID_95_" class="st1" d="M125.6,34.1v-3h1.9v0.5h-1.3v0.8h1.2v0.4h-1.2v0.8h1.4v0.5L125.6,34.1L125.6,34.1z"/>
<path id="XMLID_92_" class="st1" d="M128.4,34.1v-3h1c0.2,0,0.3,0,0.5,0.1c0.2,0.1,0.3,0.2,0.4,0.3c0.1,0.1,0.2,0.3,0.3,0.5
	c0.1,0.2,0.1,0.4,0.1,0.7c0,0.2,0,0.5-0.1,0.7c-0.1,0.2-0.2,0.3-0.3,0.5c-0.1,0.1-0.3,0.2-0.4,0.2c-0.2,0.1-0.3,0.1-0.5,0.1
	L128.4,34.1L128.4,34.1z M128.9,33.6h0.4c0.2,0,0.4-0.1,0.6-0.2c0.2-0.2,0.2-0.5,0.2-0.8c0-0.3-0.1-0.5-0.2-0.8
	c-0.1-0.2-0.3-0.3-0.6-0.3h-0.5L128.9,33.6L128.9,33.6z"/>
<path id="XMLID_88_" class="st1" d="M132.9,34.1v-3h1.2c0.2,0,0.5,0.1,0.6,0.2c0.2,0.1,0.2,0.4,0.2,0.6c0,0.2-0.1,0.5-0.3,0.6l0,0
	c0.1,0.1,0.2,0.1,0.3,0.3c0.1,0.1,0.1,0.3,0.1,0.4c0,0.6-0.4,0.9-1.1,0.9L132.9,34.1L132.9,34.1z M133.4,32.3h0.7
	c0.1,0,0.2,0,0.3-0.1c0.1-0.1,0.1-0.2,0.1-0.3c0-0.1,0-0.2-0.1-0.3c-0.1-0.1-0.2-0.1-0.3-0.1h-0.6V32.3z M133.4,33.6h0.7
	c0.1,0,0.1,0,0.2,0c0.1,0,0.1,0,0.2-0.1c0,0,0.1-0.1,0.1-0.1c0-0.1,0-0.1,0-0.2c0-0.1,0-0.3-0.2-0.3c-0.2-0.1-0.3-0.1-0.5-0.1h-0.6
	V33.6L133.4,33.6z"/>
<path id="XMLID_87_" class="st1" d="M136.5,34.1v-1.3l-1-1.7h0.5l0.7,1.3l0,0l0.7-1.3h0.5l-1,1.7v1.3H136.5L136.5,34.1z"/>
</svg>
