<svg xmlns="http://www.w3.org/2000/svg" class="c-symbolset">
    <symbol id="c-symbol-extreme" viewBox="0 0 83 11.9">
      <title>c-symbol-extreme icon</title>
      <path d="M0 0h9.6v2.8H3.3v1.8H9v2.6H3.3v1.9h6.4v2.8H0V0zM14.6 5.8l-4-5.8h3.8l2.1 3.3L18.7 0h3.7l-3.9 5.8 4.1 6.1h-3.8l-2.3-3.6-2.3 3.6h-3.7l4.1-6.1zM26.7 2.9h-3.6V0h10.4v2.9H30v9h-3.3v-9zM35 0h5.6c1.8 0 3.1.5 3.9 1.3.7.7 1.1 1.6 1.1 2.8 0 1.8-1 3-2.4 3.7l2.8 4.1h-3.8l-2.4-3.6h-1.4v3.6H35V0zm5.5 5.7c1.1 0 1.8-.5 1.8-1.4 0-.9-.7-1.4-1.8-1.4h-2.2v2.9h2.2zM47.2 0h9.6v2.8h-6.3v1.8h5.7v2.6h-5.7v1.9h6.4v2.8h-9.7V0zM58.6 0H62l2.8 4.6L67.7 0h3.5v11.9h-3.3V5.1l-3 4.7h-.1l-3-4.6V12h-3.2V0zM73.3 0h9.6v2.8h-6.3v1.8h5.7v2.6h-5.7v1.9H83v2.8h-9.7V0z"/>
    </symbol>
    <symbol id="c-symbol-hamburger" viewBox="0 0 44 44">
      <title>hamburger</title><path d="M6 5h32v5H6V5zm0 15h32v5H6v-5zm0 14h32v5H6v-5z" fill-rule="evenodd"/>
    </symbol>
    <symbol id="c-symbol-powered-by-strava" viewBox="-216 405.7 154.5 30.2">
      <title>api_logo</title><path class="st0" d="M-134.7 428.6c-1.5 0-2.9-.2-4.3-.6-1.3-.4-2.4-1-3.4-1.9l2.7-3.2c.8.6 1.7 1.1 2.6 1.4.9.3 1.8.4 2.7.4.3 0 .7 0 1-.2.2-.1.3-.3.3-.5 0-.3-.2-.5-.4-.5-.5-.2-1.1-.4-1.7-.5-.8-.2-1.7-.4-2.4-.6-.7-.2-1.4-.5-2-.9-.6-.3-1-.8-1.4-1.4-.4-.6-.5-1.3-.5-2s.1-1.4.4-2c.3-.6.7-1.2 1.2-1.6.6-.5 1.3-.9 2-1.1.9-.3 1.8-.4 2.8-.4 1.3 0 2.6.2 3.8.5 1.1.3 2.1.9 3 1.5l-2.5 3.4c-.7-.5-1.5-.9-2.3-1.1-.7-.2-1.5-.3-2.3-.4-.3 0-.6 0-.8.2-.2.1-.3.3-.3.5s.2.4.4.5c.5.2 1.1.4 1.6.5.9.2 1.8.4 2.6.6.7.2 1.4.5 2 .9.5.3 1 .8 1.3 1.4.3.6.5 1.2.5 1.9 0 .8-.1 1.5-.5 2.2-.3.6-.8 1.2-1.3 1.6-.6.5-1.3.8-2.1 1-.8.3-1.7.4-2.7.4zM-123.8 417.5h-4.4v-4.3h13.9v4.3h-4.4v10.8h-5.1v-10.8zM-113.6 413.2h7.4c1.1 0 2.3.1 3.3.5.8.3 1.5.7 2.1 1.3.4.4.8 1 1 1.6.2.6.4 1.3.3 2 0 1-.2 2-.8 2.8-.6.8-1.3 1.4-2.2 1.8l3.5 5.1h-5.8l-2.8-4.3h-1.1v4.3h-5.1l.2-15.1zm7.2 7.2c.5 0 1-.1 1.4-.4.3-.3.5-.7.5-1.1 0-.4-.2-.8-.5-1.1-.4-.3-.9-.4-1.4-.4h-2.2v3h2.2zM-69.7 421.8l3.3 6.5h4.9l-8.2-16-8.1 16h4.8z"/><path class="st0" d="M-92.3 421.8l3.3 6.5h4.8l-8.1-16-8.1 16h4.8zM-81 419.7l-3.3-6.5h-4.8l8.1 16.1 8.1-16.1h-4.8zM-208.4 428.5v-6.3h2.5c.6 0 1.1.2 1.6.5.4.4.6.9.6 1.5 0 .5-.2 1.1-.6 1.4-.4.4-1 .6-1.6.5h-1.4v2.3h-1.1zm1-3.3h1.4c.3 0 .6-.1.8-.3.4-.4.4-1 .1-1.4l-.1-.1c-.2-.2-.5-.2-.8-.2h-1.4v2zM-198.9 428.4c-.3.1-.7.2-1 .2-.3 0-.7-.1-1-.2-.7-.3-1.3-.9-1.5-1.6-.2-.5-.2-1-.2-1.5-.1-.9.2-1.7.8-2.4.5-.5 1.2-.9 1.9-.9s1.4.3 1.9.9c.6.7.9 1.5.8 2.4 0 .5-.1 1-.2 1.5-.1.4-.3.7-.6 1-.3.3-.6.5-.9.6zm-2.2-1.3c.5.6 1.4.8 2 .3l.3-.3c.3-.5.5-1.2.5-1.8 0-.6-.1-1.2-.5-1.7-.5-.6-1.4-.8-2-.3l-.3.3c-.3.5-.5 1.1-.5 1.7 0 .6.2 1.2.5 1.8zM-194.8 428.5l-1.2-6.3h1.1l.9 4.4 1.5-4.4h.6l1.5 4.4.9-4.4h1.1l-1.2 6.3h-1.1l-1.4-4.3-1.4 4.3h-1.3zM-186.8 428.5v-6.3h3.9v1h-2.9v1.6h2.6v.9h-2.6v1.8h2.9v1h-3.9zM-180.9 428.5v-6.3h2.5c.6 0 1.1.2 1.6.5.7.7.8 1.8.2 2.6-.3.3-.6.5-1 .6l1.4 2.5h-1.2l-1.3-2.4h-1.1v2.4h-1.1zm1.1-3.4h1.4c.6 0 1-.4 1-1s-.4-1-1-1h-1.4v2zM-174.4 428.5v-6.3h3.9v1h-2.9v1.6h2.6v.9h-2.6v1.8h2.9v1h-3.9zM-168.5 428.5v-6.3h2.1c.3 0 .7.1 1 .2.3.1.6.3.9.6.3.3.5.6.6 1 .2.5.2.9.2 1.4 0 .5-.1 1-.2 1.5-.1.4-.3.7-.6 1-.3.2-.6.4-.9.5-.3.1-.7.2-1 .2l-2.1-.1zm1-1h.9c.5 0 .9-.1 1.2-.5.3-.5.5-1.1.4-1.7 0-.6-.1-1.1-.5-1.6-.3-.4-.7-.5-1.2-.5h-1l.2 4.3zM-159 428.5v-6.3h2.6c.5 0 1 .1 1.3.5.3.3.5.7.5 1.2s-.3 1-.7 1.2c.3.1.5.3.7.5.2.3.3.6.3.9 0 1.3-.8 1.9-2.3 1.9l-2.4.1zm1-3.7h1.4c.2 0 .5-.1.7-.2.2-.1.3-.4.2-.6 0-.2-.1-.4-.2-.6-.2-.2-.4-.2-.7-.2h-1.4v1.6zm0 2.7h1.6c.1 0 .3 0 .4-.1.1 0 .2-.1.3-.1.1-.1.1-.2.2-.3.1-.1.1-.3.1-.4 0-.3-.1-.6-.3-.7-.3-.1-.7-.2-1.1-.1h-1.2v1.7zM-151.4 428.5v-2.7l-2.1-3.6h1.1l1.4 2.7 1.4-2.7h1.1l-2.1 3.6v2.6h-.8v.1z"/>
    </symbol>
    <symbol id="c-symbol-ride" viewBox="-247 358.9 90 52.7">
      <title>c-symbol-ride icon</title>
      <path d="M-175.5 374.5c-2.1 0-4 .4-5.9 1l-5.9-13.9h8.3c2 0 3.6 1.6 3.6 3.6 0 .7-.5 1.4-1.2 1.6l-2.4.7.8 2.6 2.4-.7c1.9-.6 3.1-2.3 3.1-4.2 0-3.5-2.8-6.3-6.3-6.3h-8.5c-.9 0-1.7.4-2.2 1.2-.5.7-.6 1.7-.2 2.5l2.3 5.4h-27.8l-3-5h4.1v-2.7h-13.6v2.7h6.3l3.6 6-3.7 6.8c-2.1-.8-4.4-1.3-6.8-1.3-10.2 0-18.5 8.3-18.5 18.5s8.3 18.5 18.5 18.5c9.5 0 17.4-7.2 18.4-16.5h2.3c.8 2.5 3.1 4.2 5.8 4.2 3.4 0 6.1-2.7 6.1-6.1 0-1.3-.4-2.6-1.2-3.6l10.3-19.3 2.7 6.3c-6 3.1-10.1 9.3-10.1 16.5 0 10.2 8.3 18.5 18.5 18.5s18.5-8.3 18.5-18.5c.2-10.2-8.1-18.5-18.3-18.5zm-45 4.9c4.5 2.6 7.6 7.5 7.9 13h-11.3c-.2-1.2-.9-2.3-1.9-3l5.3-10zm-6.1 13.8c0 1-.8 1.9-1.9 1.9s-1.9-.8-1.9-1.9c0-1 .8-1.9 1.9-1.9s1.9.8 1.9 1.9zm-1.9 15.7c-8.7 0-15.8-7.1-15.8-15.8s7.1-15.8 15.8-15.8c1.9 0 3.8.4 5.5 1l-5.5 10.4c-2.5 0-4.6 2.1-4.6 4.6 0 2.5 2.1 4.6 4.6 4.6 1.9 0 3.5-1.1 4.2-2.7h11.5c-1 7.6-7.6 13.7-15.7 13.7zm20.6-16.5h-2c-.2-6.6-3.9-12.3-9.3-15.4l2.8-5.3 10.3 17.2c-1 .8-1.6 2.1-1.8 3.5zm6 4.2c-1.9 0-3.4-1.5-3.4-3.4s1.5-3.4 3.4-3.4 3.4 1.5 3.4 3.4-1.5 3.4-3.4 3.4zm2.9-8.8c-.9-.5-1.8-.7-2.9-.7-.7 0-1.3.1-1.9.3l-10.1-16.8h24l-9.1 17.2zm23.5 21.1c-8.7 0-15.8-7.1-15.8-15.8 0-6.1 3.5-11.4 8.5-14l4.5 10.6c-1.1.8-1.8 2.1-1.8 3.6 0 2.5 2.1 4.6 4.6 4.6s4.6-2.1 4.6-4.6-2.1-4.6-4.6-4.6h-.3l-4.6-10.6c1.5-.5 3.1-.8 4.8-.8 8.7 0 15.8 7.1 15.8 15.8s-7 15.8-15.7 15.8zm0-17.6c1 0 1.9.8 1.9 1.9 0 1-.8 1.9-1.9 1.9s-1.9-.8-1.9-1.9c0-1.1.8-1.9 1.9-1.9z"/>
    </symbol>
    <symbol id="c-symbol-right" viewBox="0 0 44 44">
      <title>right</title><path d="M16.514 6.557l-3.641 3.642L24.672 22l-11.8 11.801 3.641 3.642L31.958 22z" fill-rule="evenodd"/>
    </symbol>
    <symbol id="c-symbol-strativity-logo" viewBox="0 0 36.1 4.7">
      <title>c-symbol-strativity-logo icon</title>
      <path id="XMLID_21_" class="st0" d="M14 2.6l.9 1.8h1.3L14 0l-2.2 4.4h1.3z"/><path id="XMLID_20_" class="st0" d="M23.8 2.1L22.9.3h-1.3l2.2 4.4L26 .3h-1.3z"/><g id="XMLID_2_"><path id="XMLID_18_" class="st0" d="M0 3.8L.6 3c.4.3.9.5 1.4.5.3 0 .5-.1.5-.3 0-.2-.1-.3-.7-.4C.9 2.6.2 2.4.2 1.5.2.7.8.2 1.8.2c.7 0 1.2.2 1.7.5l-.6.9c-.4-.3-.8-.4-1.1-.4-.3 0-.4.1-.4.3 0 .2.1.3.7.4.9.1 1.5.4 1.5 1.2 0 .8-.7 1.3-1.7 1.3-.7.1-1.4-.2-1.9-.6z"/><path id="XMLID_16_" class="st0" d="M5 1.3H3.8v-1h3.6v1H6.2v3.1H5V1.3z"/><path id="XMLID_13_" class="st0" d="M7.9.3h1.9c.6 0 1.1.2 1.3.4.2.2.4.6.4 1 0 .6-.3 1-.8 1.3l1 1.4h-1.3l-.9-1.3H9v1.2H7.9v-4zm1.9 2c.4 0 .6-.2.6-.5s-.2-.5-.6-.5H9v1h.8z"/><path id="XMLID_11_" class="st0" d="M17.2 1.3H16v-1h3.6v1h-1.2v3.1h-1.1V1.3z"/><path id="XMLID_9_" class="st0" d="M20 .3h1.1v4.1H20V.3z"/><path id="XMLID_7_" class="st0" d="M26.4.3h1.1v4.1h-1.1V.3z"/><path id="XMLID_5_" class="st0" d="M29.3 1.3h-1.2v-1h3.6v1h-1.2v3.1h-1.1V1.3z"/><path id="XMLID_3_" class="st0" d="M33.4 2.9L31.8.3h1.3l.8 1.5.8-1.5H36l-1.6 2.5v1.6h-1.1V2.9z"/></g>
    </symbol></svg>